<svg id="Layer_1" data-name="Layer 1" xmlns="http://www.w3.org/2000/svg" viewBox="0 0 500 132.04"><defs><style>.cls-1{fill:#093f7d;}.cls-2{fill:#a5cd3a;}.cls-3{fill:#019ada;}.cls-4{fill:#134380;}.cls-5{fill:#fafbfc;}.cls-6{fill:#12427f;}</style></defs><path class="cls-1" d="M483.63,483.3c-1.72-11.46-7.51-19.86-18.55-24.23a47.07,47.07,0,0,0-18.25-2.89c-8.65.14-16.95,2.09-25.15,4.73-3.63,1.17-6.32,2.63-6.07,6.94a6.61,6.61,0,0,1-.25,1.43l-11.07,63q-2.81,15.9-5.65,31.8c-.24,1.37,0,1.94,1.6,1.92,6.35-.09,12.7-.08,19.05,0,1.41,0,1.85-.41,2.1-1.81,1.67-9.72,3.51-19.41,5.17-29.13.26-1.49.67-1.78,2.08-1.4a52.93,52.93,0,0,0,23,1.2c13.21-2.2,22.86-9.09,28.21-21.49,3.1-7.19,4.17-14.81,4.27-23.83A35.84,35.84,0,0,0,483.63,483.3ZM458.4,506c-3.24,7.46-9,11.21-17.23,11.17a30.58,30.58,0,0,1-10-1.79c-.87-.33-1.15-.65-1-1.65q3-16.8,6-33.61A2.44,2.44,0,0,1,438,478a25.51,25.51,0,0,1,12.29-1.57c7.22.89,11.52,5.67,11.47,13.19A41.21,41.21,0,0,1,458.4,506Z" transform="translate(-250 -433.98)"/><path class="cls-1" d="M261.25,534.53c-3.21,0-6.42-.06-9.63,0-1.34,0-1.82-.21-1.55-1.71q6.06-34.17,12-68.35a1.88,1.88,0,0,1,1.49-1.7c13.58-4.18,27.32-7.31,41.67-6.43a42.33,42.33,0,0,1,10.87,2c8.81,2.95,13.45,9.25,13.86,18.52.3,7-1.07,13.84-2.25,20.68-2,11.7-4.13,23.39-6.12,35.1-.24,1.45-.68,2-2.21,1.94-6.35-.09-12.7-.08-19.05,0-1.41,0-1.7-.32-1.45-1.73q3.54-19.91,6.95-39.82a52.73,52.73,0,0,0,1-6.8c.2-5.48-2.79-9-8.21-9.76-5.21-.75-10.26.14-15.27,1.57-1.24.35-1.16,1.25-1.3,2.08q-2.65,15-5.26,30c-1.31,7.52-2.64,15.05-3.87,22.59-.25,1.57-.92,2-2.42,1.9C267.39,534.44,264.32,534.53,261.25,534.53Z" transform="translate(-250 -433.98)"/><path class="cls-1" d="M401.58,469.73c-2.3-6.32-7.46-9.39-13.45-11.15-14.79-4.35-29.36-2.28-43.78,2.07-.46.14-.89.3-1,.92-.86,5.62-1.75,11.23-2.69,17.19l3.76-.92c9.33-2.27,18.72-3.79,28.35-2.29,6.1.95,8.23,4,7.19,10.06-.24,1.36-.74,1.61-2,1.61-5.64,0-11.3-.24-16.92.46-6.92.85-13.57,2.47-19.36,6.6-10.32,7.34-12.07,23.21-3.53,32.42,4.71,5.08,10.9,7.4,17.52,8.56,12.6,2.22,25,.39,37.29-2.38,1.24-.28,1.28-1,1.44-1.92,2.6-15,5.27-30,7.81-45C403.15,480.56,403.52,475.07,401.58,469.73ZM377.2,501.86c-1,5.38-2,10.77-2.95,16.17a2.15,2.15,0,0,1-2.05,2.07c-3.11.48-6.19.88-9.32.14-4.42-1-7.11-4.08-7.69-8.75a9.57,9.57,0,0,1,5.68-9.58,22.19,22.19,0,0,1,10.46-1.7c1.9,0,3.24.11,4.55,0C377.39,500,377.42,500.71,377.2,501.86Z" transform="translate(-250 -433.98)"/><path class="cls-1" d="M557.76,476c-.39-5.77-2.47-10.67-7.43-14a31,31,0,0,0-11-4.36c-13.55-2.91-26.74-.92-39.79,2.91a1.64,1.64,0,0,0-1.33,1.58c-.65,4.32-1.39,8.63-2.07,13-.59,3.74-.58,3.71,3.17,2.8,9.26-2.25,18.59-3.76,28.15-2.33,5,.76,8.93,3.24,7.35,10.12-.27,1.19-.55,1.64-1.8,1.59-2.23-.1-4.47,0-7.35,0a70,70,0,0,0-10.21.53c-6.82.91-13.32,2.69-19.11,6.68-11.35,7.82-12.27,28.37,1.59,36.3a42.7,42.7,0,0,0,19.11,5.4c10.24.59,20.3-.86,30.28-3,1.46-.32,1.81-1.13,2-2.38,2-11.83,4.17-23.66,6.17-35.5C556.61,488.82,558.2,482.51,557.76,476Zm-25.63,25.7c-1.08,5.51-2.09,11-3.1,16.55-.15.85-.24,1.61-1.34,1.8-3.66.6-7.31,1.08-10.94-.11a9,9,0,0,1-6.61-8.24,9.09,9.09,0,0,1,5.1-9.46c3.64-2,7.58-2.1,11-2,1.84,0,3.17.06,4.49,0S532.38,500.39,532.13,501.67Z" transform="translate(-250 -433.98)"/><path class="cls-1" d="M562.79,508.1c4.72,3.59,9.4,6.7,14.81,8.54a28.06,28.06,0,0,0,14,1.55,9.22,9.22,0,0,0,3.48-1.33,5.44,5.44,0,0,0-.12-9.46c-2.6-1.55-5.58-2.12-8.45-2.94A52.51,52.51,0,0,1,577.3,501c-8.61-4.32-12.48-11.82-11.46-21.44,1.18-11,7.29-18,17.62-21.19,12-3.71,23.78-3.13,35.14,2.48,4.36,2.16,4.29,2.24,3.4,6.92s-1.79,9.65-2.74,14.78A37.44,37.44,0,0,0,608,475.82a27.4,27.4,0,0,0-14.17-1.55,8.45,8.45,0,0,0-3.27,1.3,5,5,0,0,0-.15,8.33,18.85,18.85,0,0,0,6.13,2.53A64.58,64.58,0,0,1,608.42,491c9.13,4.76,12.81,11.38,11.9,21.61-1,10.58-6.52,17.89-16.54,21.16a50.11,50.11,0,0,1-39.35-3c-5.14-2.6-5.1-2.75-4.17-8.35C561,517.69,561.92,513,562.79,508.1Z" transform="translate(-250 -433.98)"/><path class="cls-1" d="M708.85,434c1.32.21.85,1.26.85,2,0,9.87,0,19.73,0,29.6a4.23,4.23,0,0,1,.3,1.83c0,9,0,18,0,27a6,6,0,0,1-.21,1.84c-.77,1.49-1.39.27-1.83-.21-2.13-2.3-4.15-4.7-6.17-7.1-8.2-9.75-16.63-19.31-24.77-29.11a4.73,4.73,0,0,0-4-1.71c-2.31,0-2.35-.11-2.36-2.35,0-7,0-14.06,0-21.08l.72-.72Q690.09,434.07,708.85,434Z" transform="translate(-250 -433.98)"/><path class="cls-2" d="M670.6,434.7c0,6.87.14,13.74.08,20.61,0,1.73.3,2.71,2.24,2.29,2.33-.5,3.65.8,5,2.43q15.63,18.42,31.42,36.72a.54.54,0,0,1-.09.71,2.12,2.12,0,0,1-.73.34,22.35,22.35,0,0,1-4.17.15q-15.25,0-30.52,0c-1.15,0-2.39.24-3.41-.6l-24.05-28-9.78-11.42a3.5,3.5,0,0,1,2.17-.28c9.91,0,19.81-.05,29.71,0,1.68,0,2.08-.5,2.07-2.1C670.51,448.6,670.58,441.65,670.6,434.7Z" transform="translate(-250 -433.98)"/><path class="cls-1" d="M670.46,497.34l38.92-.07a.63.63,0,0,1,.08.61c-2.55,3.23-5.83,5.75-8.84,8.51-3.27,3-6.48,6.09-9.71,9.14-6.16,5.81-12.55,11.4-18.47,17.47a6.09,6.09,0,0,1-4.83,2c-3-.08-6,0-9,0a3.39,3.39,0,0,1-2.4-.48H630.91c4.28-4,8.17-7.65,12-11.29Q656.72,510.28,670.46,497.34Z" transform="translate(-250 -433.98)"/><path class="cls-3" d="M656.23,534.5c4,0,7.95-.09,11.92,0a4.49,4.49,0,0,0,3.35-1.34q13.31-12.65,26.68-25.23c3.64-3.42,7.37-6.77,11.05-10.15.8.57.33,1.27.11,1.86-3.48,9.57-7.19,19.05-10.9,28.53a2.08,2.08,0,0,1-.83,1.16c-2.24,5.75-4.51,11.47-6.68,17.24a2.19,2.19,0,0,1-2.39,1.71q-18,0-36,0c-1.46,0-1.2-.65-.89-1.48,1.28-3.38,2.58-6.74,3.86-10.12C655.82,536,656,535.23,656.23,534.5Z" transform="translate(-250 -433.98)"/><path class="cls-2" d="M697.61,529.28c2.32-7,5.31-13.83,7.84-20.8,1.29-3.57,2.92-7,3.79-10.75l.14-.46,0,0c.17-.15.3-.11.39.1l31.41,36.76a5.78,5.78,0,0,1-2.94.34c-11.08,0-22.17-.08-33.25,0a5.22,5.22,0,0,1-4.78-2.23C699.42,531.22,698.48,530.28,697.61,529.28Z" transform="translate(-250 -433.98)"/><path class="cls-3" d="M709.75,497.39a1.86,1.86,0,0,0-.39-.1c0-.18,0-.36,0-.54q0-14.49,0-29c0-.74-.26-1.54.32-2.2h33.88Z" transform="translate(-250 -433.98)"/><path class="cls-4" d="M744.21,473.25a5.66,5.66,0,0,0,.12,11.31A5.47,5.47,0,0,0,750,479,5.54,5.54,0,0,0,744.21,473.25Zm.11,10.25a4.64,4.64,0,0,1-4.56-4.7,4.69,4.69,0,0,1,4.57-4.48,4.76,4.76,0,0,1,4.59,4.72A4.7,4.7,0,0,1,744.32,483.5Zm.46-7.74c-.95.08-2.54-.63-2.74.92a15.08,15.08,0,0,0,.15,5.38,1.13,1.13,0,0,0,.67-1.44c-.14-1.26.63-1.32,1.54-1.29,1.13,0,1.34.78,1.34,1.69,0,.43,0,.91.62.81.46-.08.32-.53.29-.84a12.13,12.13,0,0,1,0-3.61C746.93,476.11,745.77,475.66,744.78,475.76Zm.83,1.95c-.09.87-1,.8-1.77.85-.65.1-1-.15-1-1,0-1.05.74-.79,1.3-.8S745.72,476.71,745.61,477.71Z" transform="translate(-250 -433.98)"/><path class="cls-2" d="M708.85,434q-16.49,0-33,.1c-1.53,0-3-.07-4.57-.11Z" transform="translate(-250 -433.98)"/><path class="cls-5" d="M746.65,477.38c.28-1.27-.88-1.72-1.87-1.62s-2.54-.63-2.74.92a15.08,15.08,0,0,0,.15,5.38,1.13,1.13,0,0,0,.67-1.44c-.14-1.26.63-1.32,1.54-1.29,1.13,0,1.34.78,1.34,1.69,0,.43,0,.91.62.81.46-.08.32-.53.29-.84A12.13,12.13,0,0,1,746.65,477.38Zm-1,.33c-.09.87-1,.8-1.77.85-.65.1-1-.15-1-1,0-1.05.74-.79,1.3-.8S745.72,476.71,745.61,477.71Z" transform="translate(-250 -433.98)"/><path class="cls-6" d="M746.65,477.38c.28-1.27-.88-1.72-1.87-1.62s-2.54-.63-2.74.92a15.08,15.08,0,0,0,.15,5.38,1.13,1.13,0,0,0,.67-1.44c-.14-1.26.63-1.32,1.54-1.29,1.13,0,1.34.78,1.34,1.69,0,.43,0,.91.62.81.46-.08.32-.53.29-.84A12.13,12.13,0,0,1,746.65,477.38Zm-1,.33c-.09.87-1,.8-1.77.85-.65.1-1-.15-1-1,0-1.05.74-.79,1.3-.8S745.72,476.71,745.61,477.71Z" transform="translate(-250 -433.98)"/></svg>